<svg height="37" viewBox="0 0 160 37" width="160" xmlns="http://www.w3.org/2000/svg"><mask id="a" fill="#fff"><path d="M0 .125h14.438v18.797H0z" fill-rule="evenodd"></path></mask><mask id="b" fill="#fff"><path d="M.18.071h24.173V27.92H.18z" fill-rule="evenodd"></path></mask><g fill="none" fill-rule="evenodd"><g fill="#4646cc"><path d="M2.426 18.424a2.005 2.005 0 0 0-.036-.01C.8 17.974-.204 16.362.035 14.69l.08-.56c.555.442 1.409.86 2.56 1.253 1.152.393 2.422.59 3.81.59 1.305 0 2.312-.197 3.02-.59.707-.393 1.061-.946 1.061-1.659 0-.835-.389-1.468-1.166-1.898-.777-.429-1.749-.792-2.914-1.087-1.278-.295-2.353-.608-3.227-.94A5.74 5.74 0 0 1 1.01 8.27C.386 7.583.073 6.673.073 5.543c0-1.548.625-2.839 1.874-3.87C3.197.641 5.125.125 7.735.125c1.193 0 2.207.105 3.039.313.833.209 1.666.498 2.499.866l-.459 3.022a8.375 8.375 0 0 0-2.206-1.16c-.806-.283-1.735-.424-2.79-.424-1.222 0-2.186.202-2.894.607-.708.406-1.061 1.014-1.061 1.825 0 .54.166.977.5 1.308.332.332.804.609 1.414.83.611.22 1.555.504 2.832.848 1.582.417 2.95 1.007 4.101 1.769 1.152.762 1.728 1.965 1.728 3.611 0 1.474-.59 2.74-1.77 3.796-1.18 1.057-3.185 1.586-6.016 1.586-1.61 0-3.019-.166-4.226-.498" transform="translate(0 9.024)"></path><path d="M45.96 27.562l-8.687-16.733h4.258l6.516 13.014 5.876-13.014h4.259L46.58 34.594C45.863 36.064 44.34 37 42.67 37h-1.522zm15.858-17.275h3.19l.475 2.924c1.092-1.13 2.135-1.96 3.126-2.49a6.547 6.547 0 0 1 3.126-.794c.345 0 .676.036.992.108l-.388 3.573a6.911 6.911 0 0 0-1.294-.108 7.74 7.74 0 0 0-3.018.596c-.948.397-1.638.86-2.07 1.39v12.49h-4.139zm37.899 17.187l-.037-.01c-1.602-.444-2.613-2.068-2.372-3.755l.08-.564c.56.446 1.42.867 2.58 1.263 1.16.397 2.44.594 3.839.594 1.314 0 2.328-.197 3.04-.594.714-.396 1.07-.954 1.07-1.672 0-.842-.392-1.48-1.174-1.914-.784-.433-1.762-.799-2.936-1.096-1.287-.297-2.37-.613-3.251-.948a5.785 5.785 0 0 1-2.266-1.541c-.629-.694-.943-1.61-.943-2.75 0-1.561.629-2.862 1.887-3.902 1.259-1.04 3.202-1.56 5.83-1.56 1.203 0 2.224.105 3.063.315.839.21 1.678.502 2.517.873l-.462 3.047a8.428 8.428 0 0 0-2.223-1.17c-.811-.285-1.748-.427-2.81-.427-1.231 0-2.203.204-2.915.612-.714.41-1.07 1.022-1.07 1.84 0 .545.167.984.503 1.32.336.334.81.612 1.426.835.615.223 1.566.508 2.853.855 1.593.421 2.97 1.016 4.131 1.783 1.16.769 1.741 1.983 1.741 3.642 0 1.486-.594 2.763-1.782 3.827-1.19 1.066-3.21 1.599-6.062 1.599-1.622 0-3.04-.168-4.257-.502m-72.444-2.94c-3.473 0-6.289-2.694-6.289-6.016 0-3.323 2.816-6.017 6.289-6.017s6.288 2.694 6.288 6.017c0 3.322-2.815 6.016-6.288 6.016m0-15.51c-5.523 0-10 4.284-10 9.568 0 .039.002.077.003.116 0 .02-.003.038-.003.058V37c2.2 0 3.984-1.707 3.984-3.812v-6.954a10.252 10.252 0 0 0 6.016 1.925c5.522 0 10-4.283 10-9.567s-4.478-9.568-10-9.568m96.363 15.361c-3.473 0-6.288-2.668-6.288-5.958 0-3.291 2.815-5.959 6.288-5.959 3.473 0 6.288 2.668 6.288 5.959 0 3.29-2.815 5.958-6.288 5.958m0-15.36c-5.523 0-10 4.242-10 9.475s4.477 9.476 10 9.476 10-4.243 10-9.476c0-5.233-4.477-9.476-10-9.476"></path><path d="M23.36 25.28c-1.495 0-2.523-.067-3.085-.201-.56-.134-.927-.434-1.1-.898-.172-.464-.259-1.32-.259-2.565v-9.453h3.854V9.598h-3.854V3.325l-.165.014c-2.104.178-3.72 1.912-3.72 3.99v2.269H7.733v-4.03c0-1.71.89-2.565 2.675-2.565.094 0 .186.008.279.012A3.868 3.868 0 0 1 13.09.525c-.96-.3-2.053-.454-3.286-.454-1.928 0-3.403.471-4.423 1.41-1.022.942-1.533 2.23-1.533 3.866v4.25H.697L.18 12.164h3.668v15.39h3.885v-15.39h7.3V23.63c0 1.198.453 2.211 1.36 3.042.906.83 2.294 1.246 4.164 1.246h3.495l.302-2.639z" mask="url(#b)" transform="translate(135.455)"></path><path d="M88.735 9.927c.29.433.481.94.444 1.451-.021.297-.096.588-.169.878-.068.27-.095.512-.104.736-.022.542.231 1.222.63 1.652.924.998 1.402 2.166 1.395 3.591-.014 2.857-2.34 5.682-5.297 6.121-3.85.573-7.12-2.122-7.38-5.66a11.383 11.383 0 0 1-.095-1.649c.041-1.594.133-1.44.417-2.987.157-1.337-.732-1.722-1.644-1.794l-.003-.012c-1.803 2.02-2.742 4.764-2.257 7.717.674 4.105 4.002 7.267 8.305 7.89 6.218.903 11.568-3.669 11.568-9.433 0-3.952-2.267-7.092-5.81-8.501"></path></g><path d="M84.392 9.8l-6.129-2.483c-1.02-.413-2.063.545-1.878 1.725l.689 3.299c.347.046.86.067 1.256.337.543.37.88.853.908 1.461.007.554-.044.739-.07 1.021-.018.192-.06.63-.057.725.014.647.028.67.092 1.006.126.665.435 1.158.435 1.158l5.233-5.199c.959-.88.693-2.575-.48-3.05" fill="#f43f08"></path></g></svg>