<svg xmlns="http://www.w3.org/2000/svg" width="72.825" height="59.833" viewBox="0 0 72.825 59.833"><g transform="translate(-1290.5 -1006.932)"><path d="M438.285,271.25a9.535,9.535,0,1,0,9.535,9.535A9.563,9.563,0,0,0,438.285,271.25Z" transform="translate(909.547 758.568)" fill="#ec2c55"/><path d="M411.22,428.75H389.767A4.781,4.781,0,0,0,385,433.517v10.726h30.987V433.517A4.781,4.781,0,0,0,411.22,428.75Z" transform="translate(947.338 622.521)" fill="#ec2c55"/><path d="M281.4,104.25H260.911a2.41,2.41,0,0,0-2.411,2.411v16.874a1.205,1.205,0,0,0,1.928.964l2.25-1.687a2.406,2.406,0,0,1,1.446-.482H281.4a2.41,2.41,0,0,0,2.411-2.411V106.661A2.41,2.41,0,0,0,281.4,104.25Zm-15.281,13.188a1.5,1.5,0,0,1-2.125-.146l-2.41-2.767a1.5,1.5,0,0,1-.076-1.885l2.41-3.259a1.506,1.506,0,1,1,2.423,1.791l-1.691,2.288,1.615,1.854A1.5,1.5,0,0,1,266.118,117.438Zm7.694-7.966-2.331,8.437a1.507,1.507,0,0,1-1.451,1.105,1.556,1.556,0,0,1-.4-.054,1.508,1.508,0,0,1-1.051-1.854l2.331-8.437a1.507,1.507,0,1,1,2.9.8Zm6.991,4.467-2.411,3.259a1.506,1.506,0,0,1-2.423-1.791l1.691-2.288-1.615-1.854a1.506,1.506,0,0,1,2.271-1.979l2.411,2.767A1.506,1.506,0,0,1,280.8,113.939Z" transform="translate(1044.551 926.53)" fill="#ec2c55"/><path d="M37.886,56.42H6.838A6.847,6.847,0,0,1,0,49.58V6.839A6.846,6.846,0,0,1,6.838,0H54.709a6.847,6.847,0,0,1,6.84,6.839V20.044a12.7,12.7,0,0,0-4.718-.894,12.166,12.166,0,0,0-2.122.184v-.527A1.711,1.711,0,0,0,53,17.1H8.548a1.712,1.712,0,0,0-1.71,1.71V47.871a1.712,1.712,0,0,0,1.71,1.71H37.937c-.073,3.174-.089,5.411-.051,6.839ZM10.258,5.129a3.419,3.419,0,1,0,3.419,3.419A3.423,3.423,0,0,0,10.258,5.129Zm10.259.855a2.565,2.565,0,1,0,0,5.129h6.837a2.565,2.565,0,1,0,0-5.129Z" transform="translate(1291 1007.432)" fill="#2d327f" stroke="rgba(0,0,0,0)" stroke-miterlimit="10" stroke-width="1"/></g></svg>