<svg xmlns="http://www.w3.org/2000/svg" width="64" height="58.667" viewBox="0 0 64 58.667"><g transform="translate(-310 -1789.011)"><path d="M127.972,2.059H78.194A7.111,7.111,0,0,0,71.083,9.17V53.615a7.111,7.111,0,0,0,7.111,7.111h49.778a7.111,7.111,0,0,0,7.111-7.111V9.17a7.111,7.111,0,0,0-7.111-7.111M92.416,8.281h7.111a2.667,2.667,0,1,1,0,5.333H92.416a2.667,2.667,0,0,1,0-5.333M81.75,7.392a3.556,3.556,0,1,1-3.556,3.556A3.555,3.555,0,0,1,81.75,7.392m46.222,44.444a1.778,1.778,0,0,1-1.778,1.778H79.972a1.778,1.778,0,0,1-1.778-1.778V21.615a1.778,1.778,0,0,1,1.778-1.778h46.222a1.778,1.778,0,0,1,1.778,1.778Z" transform="translate(238.917 1786.952)" fill="#2d327f"/><path d="M116.329,32.067h-2.421a1.688,1.688,0,0,1-1.593-1.216,14.952,14.952,0,0,0-.96-2.308,1.654,1.654,0,0,1,.258-1.948l1.733-1.732a1.652,1.652,0,0,0,0-2.334l-2.336-2.336a1.652,1.652,0,0,0-2.334,0l-1.732,1.733a1.653,1.653,0,0,1-1.948.258,14.78,14.78,0,0,0-2.308-.96,1.69,1.69,0,0,1-1.216-1.593V17.211a1.652,1.652,0,0,0-1.652-1.652h-3.3a1.652,1.652,0,0,0-1.652,1.652v2.421a1.69,1.69,0,0,1-1.214,1.593,14.639,14.639,0,0,0-2.308.96,1.656,1.656,0,0,1-1.95-.258l-1.732-1.733a1.652,1.652,0,0,0-2.334,0L83,22.53a1.649,1.649,0,0,0,0,2.334L84.727,26.6a1.654,1.654,0,0,1,.26,1.948,14.961,14.961,0,0,0-.962,2.308,1.687,1.687,0,0,1-1.591,1.216H80.011a1.651,1.651,0,0,0-1.65,1.652v3.3a1.65,1.65,0,0,0,1.65,1.65h10.6a8.252,8.252,0,1,1,15.115,0h10.6a1.649,1.649,0,0,0,1.65-1.65v-3.3a1.65,1.65,0,0,0-1.65-1.652" transform="translate(243.639 1797.452)" fill="#ec2c55"/></g></svg>