<svg xmlns="http://www.w3.org/2000/svg" width="65" height="62.21" viewBox="0 0 65 62.21"><g transform="translate(-372.5 -1632.623)"><path d="M329.132,303.8a5.347,5.347,0,0,0-7.305,1.958c-1.723,2.984.305,6.41-4.592,11.037,6.17.781,12.132-2.7,13.855-5.689a5.347,5.347,0,0,0-1.958-7.306Z" transform="translate(76.679 1364.094)" fill="#ec2c55"/><path d="M368.721,62.292l.953.262a3.216,3.216,0,0,1,2.248,2.248l.262.953a.73.73,0,0,0,1.408,0l.262-.953a3.215,3.215,0,0,1,2.248-2.248l.953-.262a.73.73,0,0,0,0-1.408l-.953-.262a3.215,3.215,0,0,1-2.248-2.247l-.262-.953h0a.73.73,0,0,0-1.408,0l-.262.953h0a3.215,3.215,0,0,1-2.248,2.247l-.953.262a.73.73,0,0,0,0,1.408Z" transform="translate(45.997 1611.287)" fill="#ec2c55"/><path d="M242.132,15.059l1.135.312h0a3.832,3.832,0,0,1,2.678,2.678l.312,1.135h0a.87.87,0,0,0,1.678,0l.312-1.135h0a3.831,3.831,0,0,1,2.678-2.678l1.135-.312a.87.87,0,0,0,0-1.678l-1.135-.312a3.83,3.83,0,0,1-2.678-2.678l-.312-1.135a.87.87,0,0,0-1.678,0l-.312,1.135a3.831,3.831,0,0,1-2.678,2.678l-1.135.312h0a.87.87,0,0,0,0,1.678Z" transform="translate(145.93 1649.402)" fill="#ec2c55"/><path d="M-179.111-162.057h-49.778A7.119,7.119,0,0,1-236-169.169v-44.444a7.119,7.119,0,0,1,7.111-7.112h37.642l-12.421,17.779h-23.443a1.78,1.78,0,0,0-1.777,1.778v30.222a1.78,1.78,0,0,0,1.777,1.778h46.222a1.78,1.78,0,0,0,1.778-1.778v-30.222a1.78,1.78,0,0,0-1.778-1.778h-4.169l7.65-17.573A7.094,7.094,0,0,1-172-213.612v44.444A7.119,7.119,0,0,1-179.111-162.057Zm-46.222-53.334a3.56,3.56,0,0,0-3.556,3.556,3.56,3.56,0,0,0,3.556,3.556,3.559,3.559,0,0,0,3.555-3.556A3.559,3.559,0,0,0-225.333-215.391Z" transform="translate(609 1856.39)" fill="#2d327f" stroke="rgba(0,0,0,0)" stroke-miterlimit="10" stroke-width="1"/><path d="M383.764,91.967a7.679,7.679,0,0,1,3.439,4.2c3.957-7.779,14.054-26.37,16.6-34.717a1.47,1.47,0,0,0-2.476-1.429c-5.954,6.381-18.167,23.75-22.925,31.066a7.681,7.681,0,0,1,5.36.875Z" transform="translate(24.047 1573.055)" fill="#ec2c55"/></g></svg>