<svg xmlns="http://www.w3.org/2000/svg" width="72.325" height="55.14" viewBox="0 0 72.325 55.14"><g transform="translate(-875 -907.819)"><path d="M398.284,99.647a1.16,1.16,0,0,1-.7-1.438l2.737-7.863h0a1.16,1.16,0,0,1,2.134.742l-2.749,7.863a1.16,1.16,0,0,1-1.427.7Z" transform="translate(519.907 820.255)" fill="#ec2c55"/><path d="M439.346,130.193a1.16,1.16,0,0,1-.186-1.577l5.138-6.553h0a1.16,1.16,0,1,1,1.774,1.38l-5.138,6.564h0a1.16,1.16,0,0,1-1.589.185Z" transform="translate(483.995 792.875)" fill="#ec2c55"/><path d="M269.433,99.647a1.16,1.16,0,0,0,.7-1.438l-2.737-7.863h0a1.16,1.16,0,0,0-2.134.742l2.749,7.863a1.16,1.16,0,0,0,1.427.7Z" transform="translate(634.655 820.255)" fill="#ec2c55"/><path d="M211,130.193a1.16,1.16,0,0,0,.186-1.577l-5.138-6.553h0a1.16,1.16,0,1,0-1.774,1.38l5.138,6.564h0a1.16,1.16,0,0,0,1.589.185Z" transform="translate(687.943 792.875)" fill="#ec2c55"/><path d="M297.038,213.59h-8.119a3.085,3.085,0,0,0-2.053.8l-9.278,8.548a3.769,3.769,0,0,0-.2,5.312,3.967,3.967,0,0,0,5.324.267l7.585-6.959h0a1.519,1.519,0,1,1,2.042,2.238l-2.47,2.32L303.7,237.331h0a7.38,7.38,0,0,1,.742.731V219.668l-5.184-5.184a3.006,3.006,0,0,0-2.146-.893Z" transform="translate(624.991 712.877)" fill="#ec2c55"/><path d="M246.325,239.828l-14.173-11.482-2.853,2.61a6.85,6.85,0,0,1-9.278-10.079l7.759-7.11h-7.9a3.029,3.029,0,0,0-2.146.893l-5.2,5.184V241.1h1.74l8.583,7.771a6.077,6.077,0,0,0,8.547-.881l1.67,1.427a3.479,3.479,0,0,0,4.964-.511l2.981-3.665.522.417a3.027,3.027,0,0,0,4.291-.441l.9-1.16a3.051,3.051,0,0,0-.441-4.28Z" transform="translate(680.38 712.723)" fill="#2d327f"/><path d="M524.094,260.415h-4.5a.9.9,0,0,0-.893-.893h-8.223v21.272a3.038,3.038,0,0,0,3.085,3.027h5.184a.9.9,0,0,0,.893-.893h4.5a1.265,1.265,0,0,0,1.253-1.253V261.667a1.264,1.264,0,0,0-1.3-1.252Zm-8.026,19.961a1.032,1.032,0,0,1-2.064,0v-2.227a1.032,1.032,0,1,1,2.064,0Z" transform="translate(421.933 673.033)" fill="#ec2c55"/><path d="M77.352,261.668v20.007a1.265,1.265,0,0,0,1.252,1.253h4.5a.9.9,0,0,0,.893.893h5.138a3.038,3.038,0,0,0,3.085-3.027V259.522H84a.9.9,0,0,0-.893.893H78.6a1.264,1.264,0,0,0-1.252,1.252Zm9.278,16.481h0a1.032,1.032,0,1,1,2.064,0v2.227a1.032,1.032,0,0,1-2.064,0Z" transform="translate(797.648 673.033)" fill="#2d327f"/><path d="M342.41,83.27a1.16,1.16,0,0,1-1.16-1.16v-8.3a1.16,1.16,0,0,1,2.262,0v8.339a1.16,1.16,0,0,1-1.1,1.125Z" transform="translate(568.729 834.916)" fill="#ec2c55"/></g></svg>